<?xml version="1.0" standalone="no"?>
<!DOCTYPE svg PUBLIC "-//W3C//DTD SVG 20010904//EN"
 "http://www.w3.org/TR/2001/REC-SVG-20010904/DTD/svg10.dtd">
<svg version="1.0" xmlns="http://www.w3.org/2000/svg"
 width="451.000000pt" height="451.000000pt" viewBox="0 0 451.000000 451.000000"
 preserveAspectRatio="xMidYMid meet">
<g transform="translate(0.000000,451.000000) scale(0.100000,-0.100000)"
fill="#3f7a6f" stroke="none">
<path d="M0 2255 l0 -2255 2255 0 2255 0 0 2255 0 2255 -2255 0 -2255 0 0
-2255z m4020 5 l0 -1760 -1765 0 -1765 0 0 1760 0 1760 1765 0 1765 0 0 -1760z"/>
<path d="M840 3501 l0 -179 128 -8 c70 -4 151 -8 181 -8 l53 -1 38 105 c21 58
52 142 68 188 l31 82 -250 0 -249 0 0 -179z"/>
<path d="M1625 3458 c-44 -121 -81 -224 -82 -227 -2 -3 25 -14 60 -24 34 -10
109 -37 165 -59 87 -34 106 -38 116 -27 10 11 321 496 350 547 6 9 -49 12
-261 12 l-268 0 -80 -222z"/>
<path d="M2417 3310 l-236 -370 73 -49 c40 -27 106 -76 148 -109 l75 -60 479
479 479 479 -391 0 -392 0 -235 -370z"/>
<path d="M3193 2948 l-471 -473 49 -60 c28 -33 75 -97 106 -142 31 -46 60 -83
64 -83 9 0 698 437 717 454 9 9 12 97 10 394 l-3 382 -472 -472z"/>
<path d="M840 2753 l0 -220 88 -7 c695 -56 1279 -507 1505 -1162 45 -129 73
-260 88 -407 l12 -117 218 0 219 0 0 58 c0 183 -45 453 -105 635 -108 325
-263 576 -509 823 -374 375 -850 586 -1378 611 l-138 6 0 -220z"/>
<path d="M3383 2058 l-281 -180 20 -46 c12 -26 39 -101 62 -168 l41 -120 222
80 223 81 0 268 c0 147 -1 267 -2 266 -2 0 -130 -82 -285 -181z"/>
<path d="M840 1964 l0 -219 112 -27 c403 -97 695 -405 778 -820 l11 -58 221 0
221 0 -6 78 c-18 229 -105 473 -240 671 -77 113 -253 285 -374 365 -187 124
-431 210 -630 223 l-93 6 0 -219z"/>
<path d="M840 1116 l0 -276 275 0 c151 0 275 2 275 4 0 27 -58 175 -88 225
-90 150 -271 283 -429 316 l-33 7 0 -276z"/>
<path d="M3520 1284 c-80 -30 -163 -61 -186 -69 l-40 -15 7 -68 c5 -37 8 -118
8 -179 l1 -113 180 0 180 0 0 250 c0 138 -1 250 -2 249 -2 -1 -68 -25 -148
-55z"/>
</g>
</svg>
